<?xml version="1.0" standalone="no"?><!DOCTYPE svg PUBLIC "-//W3C//DTD SVG 1.1//EN" "http://www.w3.org/Graphics/SVG/1.1/DTD/svg11.dtd"><svg t="1639980886934" class="icon" viewBox="0 0 1024 1024" version="1.1" xmlns="http://www.w3.org/2000/svg" p-id="19637" data-spm-anchor-id="a313x.7781069.0.i16" xmlns:xlink="http://www.w3.org/1999/xlink" width="200" height="200"><defs><style type="text/css"></style></defs><path d="M382.899 905.832h-251.6c-72.4 0-131.3-58.9-131.3-131.3v-633.6c0-74.3 60.5-134.8 134.8-134.8h126.3c63.8 0 118.7 45.6 130.4 108.3l20.9 111.9c4.6 24.5 26 42.3 50.9 42.3h385.7c74.3 0 134.8 60.5 134.8 134.8v19.2c0 22.2-18 40.3-40.3 40.3s-40.3-18-40.3-40.3v-19.2c0-29.9-24.3-54.2-54.2-54.3h-385.6c-63.6 0-118.3-45.4-130-108l-20.9-111.9c-4.6-24.7-26.2-42.6-51.2-42.6h-126.5c-29.9 0-54.2 24.3-54.2 54.3v633.6c0 28 22.8 50.7 50.7 50.7h251.6c22.2 0 40.3 18 40.3 40.3 0 22.3-18.1 40.3-40.3 40.3z" fill="#f43319" p-id="19638"></path><path d="M882.199 140.432h-306c-22.2 0-40.3-18-40.3-40.3 0-22.2 18-40.3 40.3-40.3h306c22.2 0 40.3 18 40.3 40.3 0 22.2-18 40.3-40.3 40.3zM623.399 1017.832c-60.8 0-110.3-49.5-110.3-110.3s49.5-110.3 110.3-110.3c17.8 0 32.2 14.4 32.2 32.2 0 17.8-14.4 32.2-32.2 32.2-25.3 0-45.8 20.6-45.8 45.8s20.6 45.8 45.8 45.8 45.9-20.6 45.9-45.8v-260.3c0-33.4 23.7-62.8 56.4-69.8l212-45.6c38.6-8.3 76.5 16.3 84.8 54.8 1.1 5 1.6 10 1.6 15v259c0 60.8-49.5 110.3-110.3 110.3-29.5 0-57.1-11.5-78-32.3-20.8-20.8-32.3-48.5-32.3-78 0-60.8 49.5-110.3 110.3-110.3 17.8 0 32.2 14.4 32.2 32.2 0 17.8-14.4 32.2-32.2 32.2-25.3 0-45.8 20.6-45.8 45.8 0 12.3 4.8 23.8 13.4 32.4 8.7 8.7 20.2 13.4 32.4 13.4 25.3 0 45.8-20.6 45.8-45.8v-259c-1-5.2-4.7-7.6-8.4-6.8l-212 45.6c-3.2 0.7-5.5 3.6-5.5 6.8v260.3c0 61-49.5 110.5-110.3 110.5z" fill="#f43319" p-id="19639"></path></svg>