<?xml version="1.0" standalone="no"?><!DOCTYPE svg PUBLIC "-//W3C//DTD SVG 1.1//EN" "http://www.w3.org/Graphics/SVG/1.1/DTD/svg11.dtd"><svg t="1638496198591" class="icon" viewBox="0 0 1024 1024" version="1.1" xmlns="http://www.w3.org/2000/svg" p-id="10112" xmlns:xlink="http://www.w3.org/1999/xlink" width="200" height="200"><defs><style type="text/css"></style></defs><path d="M934.4 76.8h-79.36c-79.36 0-145.92 64-145.92 143.36v373.76c-33.28-25.6-74.24-38.4-117.76-38.4-110.08 0-197.12 87.04-197.12 197.12s89.6 197.12 197.12 197.12 197.12-87.04 197.12-197.12V220.16C788.48 184.32 819.2 153.6 855.04 153.6h79.36c23.04 0 38.4-17.92 38.4-38.4S954.88 76.8 934.4 76.8zM591.36 867.84c-66.56 0-117.76-53.76-117.76-117.76s53.76-117.76 117.76-117.76c66.56 0 117.76 53.76 117.76 117.76s-53.76 117.76-117.76 117.76zM89.6 156.16H537.6c23.04 0 38.4-17.92 38.4-38.4S560.64 76.8 537.6 76.8H89.6C69.12 76.8 51.2 94.72 51.2 115.2s17.92 40.96 38.4 40.96zM89.6 394.24H537.6c23.04 0 38.4-17.92 38.4-38.4s-17.92-38.4-38.4-38.4H89.6c-20.48-2.56-38.4 15.36-38.4 38.4s17.92 38.4 38.4 38.4zM327.68 555.52H89.6c-23.04 0-38.4 17.92-38.4 38.4s17.92 38.4 38.4 38.4h238.08c23.04 0 38.4-17.92 38.4-38.4 0-23.04-15.36-38.4-38.4-38.4z" p-id="10113"></path></svg>