<?xml version="1.0" standalone="no"?><!DOCTYPE svg PUBLIC "-//W3C//DTD SVG 1.1//EN" "http://www.w3.org/Graphics/SVG/1.1/DTD/svg11.dtd"><svg t="1640165343509" class="icon" viewBox="0 0 1024 1024" version="1.1" xmlns="http://www.w3.org/2000/svg" p-id="2095" xmlns:xlink="http://www.w3.org/1999/xlink" width="200" height="200"><defs><style type="text/css"></style></defs><path d="M625.28843881 13.0350417c27.69272986-7.55256305 57.90298008-7.55256305 85.59570994 0 32.72777156 7.55256305 62.93802178 22.65768816 88.1132303 42.79785497 10.07008341 7.55256305 17.62264645 15.10512511 22.65768815 27.69272986 7.55256305 17.62264645 5.0350417 37.76281327-5.0350417 52.86793838-7.55256305 12.58760475-22.65768816 22.65768816-40.28033362 25.17520851-12.58760475 2.51752134-25.17520852 0-37.76281327-7.55256305-5.0350417-2.51752134-10.07008341-10.07008341-17.62264645-12.58760376-17.62264645-10.07008341-35.24529192-20.14016681-55.38545874-17.62264645-15.10512511 0-27.69272986 7.55256305-35.2452929 17.62264645-10.07008341 10.07008341-12.58760475 22.65768816-10.07008341 35.24529192 7.55256305 25.17520852 12.58760475 52.86793838 20.1401678 78.04314689 50.35041703 2.51752134 98.1833137 15.10512511 140.98116867 40.28033363 40.28033363 25.17520852 78.04314689 57.90298008 108.25339711 95.66579334 25.17520852 32.72777156 45.31537533 70.49058483 55.38545873 110.77091845 12.58760475 42.79785497 17.62264645 88.1132303 12.58760475 130.91108527-2.51752134 37.76281327-10.07008341 73.00810519-22.65768815 108.25339711-32.72777156 83.07818859-90.63075164 158.60381513-168.67389755 206.4367118-55.38545873 35.24529192-120.84100186 57.90298008-186.29654499 65.45554312-45.31537533 5.0350417-90.63075164 5.0350417-135.94612696-2.51752134-93.148272-15.10512511-178.74398194-60.42050044-246.71704543-128.39356491-65.45554312-65.45554312-110.77091845-151.05125208-130.91108526-241.68200273-7.55256305-67.97306348-7.55256305-135.94612697 7.55256305-203.91919144 17.62264645-80.56066823 60.42050044-158.60381513 115.80595917-219.02431556 47.83289667-50.35041703 105.73587675-88.1132303 168.67389853-115.80596016 7.55256305-2.51752134 12.58760475-5.0350417 20.14016681-7.55256206 15.10512511-2.51752134 30.21025022 0 42.79785497 10.0700834 17.62264645 12.58760475 25.17520852 32.72777156 22.65768816 52.86793838-2.51752134 20.14016681-17.62264645 37.76281327-35.24529193 45.31537533-62.93802178 25.17520852-120.84100186 67.97306348-161.12133646 120.84100186C209.89749584 375.55804728 184.72228634 433.46102736 177.16972428 493.8815278c-7.55256305 60.42050044 0 120.84100186 20.14016681 178.74398193 30.21025022 83.07818859 93.148272 153.56877342 171.19141889 193.84910705 47.83289667 25.17520852 100.70083505 37.76281327 153.56877343 37.76281327 42.79785497 0 88.1132303-7.55256305 128.3935649-22.65768816 35.24529192-12.58760475 70.49058483-32.72777156 98.18331371-57.90297909 27.69272986-22.65768816 50.35041703-52.86793838 65.45554214-83.07818958 7.55256305-15.10512511 17.62264645-32.72777156 20.14016779-50.35041703 15.10512511-50.35041703 17.62264645-105.73587675 2.51752036-156.08629378-12.58760475-42.79785497-37.76281327-80.56066823-70.49058384-108.2533981-15.10512511-12.58760475-30.21025022-25.17520852-47.83289667-35.24529192-15.10512511-7.55256305-30.21025022-15.10512511-47.83289668-17.62264645 12.58760475 45.31537533 22.65768816 90.63075164 35.24529193 133.42860661 2.51752134 10.07008341 5.0350417 22.65768816 5.0350417 32.72777156 2.51752134 45.31537533-15.10512511 93.148272-45.31537533 128.39356392-27.69272986 32.72777156-67.97306348 57.90298008-110.77091845 65.45554313-45.31537533 10.07008341-95.66579334 0-135.94612697-25.17520852-37.76281327-25.17520852-65.45554312-62.93802178-80.56066823-103.21835639-7.55256305-22.65768816-12.58760475-47.83289667-12.58760377-73.00810519-2.51752134-55.38545873 12.58760475-108.25339711 42.79785398-153.56877342 35.24529192-52.86793838 93.148272-90.63075164 156.08629477-108.25339711-5.0350417-17.62264645-10.07008341-35.24529192-12.58760475-52.86793837-12.58760475-37.76281327-10.07008341-80.56066823 7.55256305-113.28843882 10.07008341-20.14016681 22.65768816-37.76281327 40.28033362-50.35041801C582.49058483 33.17520852 602.63075164 20.58760475 625.28843881 13.0350417m-146.01621037 407.83838091c-17.62264645 17.62264645-27.69272986 40.28033363-32.72777156 62.93802178-5.0350417 20.14016681-5.0350417 42.79785497 0 65.45554313 5.0350417 22.65768816 17.62264645 45.31537533 37.76281326 60.42050043 15.10512511 10.07008341 35.24529192 15.10512511 55.38545972 10.07008341 35.24529192-5.0350417 62.93802178-37.76281327 62.93802178-73.00810519-2.51752134-7.55256305-2.51752134-17.62264645-5.0350417-25.17520851-12.58760475-47.83289667-25.17520852-98.1833137-37.76281327-146.01621038-30.21025022 7.55256305-57.90298008 22.65768816-80.56066823 45.31537533z" fill="#fff" p-id="2096"></path></svg>