<?xml version="1.0" standalone="no"?><svg t="1637049824824" class="icon" viewBox="0 0 1117 1024" version="1.1" xmlns="http://www.w3.org/2000/svg" p-id="33592" xmlns:xlink="http://www.w3.org/1999/xlink" width="218.1640625" height="200"><defs><style type="text/css"></style></defs><path d="M645.399273 725.922909a357.655273 357.655273 0 0 1 239.243636 197.538909 488.541091 488.541091 0 0 0 170.356364-370.781091C1054.999273 281.134545 832.698182 61.160727 558.545455 61.160727 284.392727 61.160727 62.091636 281.227636 62.091636 552.680727a488.541091 488.541091 0 0 0 170.356364 370.781091 357.655273 357.655273 0 0 1 239.336727-197.632 192.977455 192.977455 0 0 1-108.637091-173.149091c0-51.2 20.48-100.165818 57.157819-136.471272 36.584727-36.212364 86.388364-56.599273 138.24-56.599273 107.985455 0.093091 195.490909 86.574545 195.304727 193.163636a192.977455 192.977455 0 0 1-108.450909 173.149091zM0 552.680727C0 247.435636 250.135273 0 558.545455 0s558.545455 247.435636 558.545454 552.773818A551.098182 551.098182 0 0 1 850.757818 1024 295.005091 295.005091 0 0 0 558.545455 776.564364a294.912 294.912 0 0 0-292.212364 247.342545A551.191273 551.191273 0 0 1 0 552.773818v-0.093091z m558.545455 131.909818a132.654545 132.654545 0 0 0 133.21309-131.909818A132.654545 132.654545 0 0 0 558.545455 420.770909a132.654545 132.654545 0 0 0-133.213091 132.002909c0 72.890182 59.671273 131.909818 133.213091 131.909818z m350.30109 42.821819a31.278545 31.278545 0 0 1-41.704727 13.312 30.440727 30.440727 0 0 1-13.591273-41.146182 318.370909 318.370909 0 0 0 35.374546-146.525091c0-180.875636-147.921455-327.493818-330.286546-327.493818-182.458182 0-330.472727 146.618182-330.472727 327.493818 0 52.130909 12.288 102.213818 35.746909 147.269818 7.819636 14.987636 1.768727 33.512727-13.498182 41.146182a31.278545 31.278545 0 0 1-41.797818-13.312 378.600727 378.600727 0 0 1-42.449454-175.104C166.167273 338.478545 341.643636 164.398545 558.545455 164.398545c216.715636 0 392.285091 174.08 392.28509 388.654546a378.507636 378.507636 0 0 1-42.07709 174.359273z" p-id="33593"></path></svg>