<?xml version="1.0" standalone="no"?><!DOCTYPE svg PUBLIC "-//W3C//DTD SVG 1.1//EN" "http://www.w3.org/Graphics/SVG/1.1/DTD/svg11.dtd"><svg t="1639968218116" class="icon" viewBox="0 0 1024 1024" version="1.1" xmlns="http://www.w3.org/2000/svg" p-id="9401" xmlns:xlink="http://www.w3.org/1999/xlink" width="200" height="200"><defs><style type="text/css"></style></defs><path d="M775.866182 95.232C862.580364 166.120727 912.290909 267.682909 912.290909 373.853091c0 105.658182-49.338182 206.801455-135.261091 277.643636l-16.896 13.824c-61.626182 50.269091-89.786182 73.216-99.141818 141.451637l-0.791273 5.585454v102.353455C660.293818 974.987636 606.580364 1024 540.578909 1024H464.896c-66.001455 0-119.714909-49.012364-119.714909-109.288727l-0.046546-102.4-1.861818-13.824c-8.331636-60.462545-34.490182-81.594182-86.667636-123.810909-10.24-8.285091-21.085091-17.082182-32.488727-26.717091C128.418909 566.877091 81.547636 451.956364 95.511273 332.8 115.758545 160.302545 267.450182 21.317818 456.192 2.280727c116.503273-11.729455 233.006545 22.109091 319.674182 92.951273zM580.421818 846.615273H424.96v68.096c0 20.061091 17.966545 36.398545 39.936 36.398545h75.636364c21.969455 0 39.889455-16.337455 39.889454-36.398545v-68.096zM464.989091 74.752c-151.831273 15.313455-273.873455 127.069091-290.117818 265.774545-11.264 96.162909 26.484364 188.741818 103.517091 254.045091 10.938182 9.262545 21.364364 17.687273 31.185454 25.6 52.875636 42.728727 95.325091 77.079273 110.312727 153.6h166.167273c17.221818-78.242909 61.579636-114.408727 120.925091-162.769454l16.570182-13.591273c69.259636-57.018182 108.916364-138.472727 108.916364-223.511273 0-85.504-40.029091-167.284364-109.847273-224.349091-70.749091-57.809455-162.164364-84.48-257.675637-74.798545z m37.701818 389.259636c22.062545 0 39.936 16.290909 39.936 36.445091v122.740364c0 20.107636-17.873455 36.445091-39.936 36.445091-22.016 0-39.889455-16.290909-39.889454-36.445091v-122.740364c0-20.107636 17.873455-36.445091 39.889454-36.445091z" p-id="9402"></path></svg>