<?xml version="1.0" standalone="no"?><!DOCTYPE svg PUBLIC "-//W3C//DTD SVG 1.1//EN" "http://www.w3.org/Graphics/SVG/1.1/DTD/svg11.dtd"><svg t="1638496011474" class="icon" viewBox="0 0 1024 1024" version="1.1" xmlns="http://www.w3.org/2000/svg" p-id="2916" xmlns:xlink="http://www.w3.org/1999/xlink" width="200" height="200"><defs><style type="text/css"></style></defs><path d="M354.0992 799.7952c-160.7168 0-291.5328-130.7648-291.5328-291.5328s130.7648-291.5328 291.5328-291.5328h99.9936c16.9472 0 30.72 13.7728 30.72 30.72s-13.7728 30.72-30.72 30.72H354.0992c-126.8736 0-230.0928 103.2192-230.0928 230.0928 0 126.8736 103.2192 230.0928 230.0928 230.0928 16.9472 0 30.72 13.7728 30.72 30.72s-13.7216 30.72-30.72 30.72zM671.7952 799.7952h-121.5488c-16.9472 0-30.72-13.7728-30.72-30.72s13.7728-30.72 30.72-30.72h121.5488c126.8736 0 230.0928-103.2192 230.0928-230.0928 0-126.8736-103.2192-230.0928-230.0928-230.0928-16.9472 0-30.72-13.7728-30.72-30.72s13.7728-30.72 30.72-30.72c160.7168 0 291.5328 130.7648 291.5328 291.5328s-130.816 291.5328-291.5328 291.5328z" fill="#fc3b41" p-id="2917"></path><path d="M385.536 373.0432c-8.0384 0-16.0256-3.1232-22.0672-9.3696a30.6688 30.6688 0 0 1 0.6656-43.4176l73.3696-71.1168-71.7824-60.5184a30.7456 30.7456 0 0 1 39.6288-47.0016l97.792 82.432c6.656 5.5808 10.5984 13.7216 10.9056 22.4256s-3.072 17.1008-9.3184 23.1424l-97.792 94.7712a30.73536 30.73536 0 0 1-21.4016 8.6528zM624.6912 883.5072c-7.3216 0-14.6432-2.6112-20.48-7.8336l-97.792-87.7568a30.81728 30.81728 0 0 1-10.1888-23.9104c0.3072-9.1136 4.608-17.5616 11.776-23.1424l97.792-76.3392a30.6688 30.6688 0 0 1 43.1104 5.3248 30.6688 30.6688 0 0 1-5.3248 43.1104l-68.864 53.76 70.5024 63.232a30.69952 30.69952 0 0 1-20.5312 53.5552z" fill="#fc3b41" p-id="2918"></path><path d="M503.808 654.3872c-16.9472 0-30.72-13.7728-30.72-30.72V408.7296c0-16.9472 13.7728-30.72 30.72-30.72s30.72 13.7728 30.72 30.72v214.9376c0 16.9472-13.7728 30.72-30.72 30.72z" fill="#fc3b41" p-id="2919"></path></svg>