<?xml version="1.0" standalone="no"?><!DOCTYPE svg PUBLIC "-//W3C//DTD SVG 1.1//EN" "http://www.w3.org/Graphics/SVG/1.1/DTD/svg11.dtd"><svg t="1637057526303" class="icon" viewBox="0 0 1024 1024" version="1.1" xmlns="http://www.w3.org/2000/svg" p-id="57858" xmlns:xlink="http://www.w3.org/1999/xlink" width="200" height="200"><defs><style type="text/css"></style></defs><path d="M834.37037 237.037037H170.666667c-56.888889 0-104.296296 47.407407-104.296297 104.296296v436.148148c0 56.888889 47.407407 104.296296 104.296297 104.296297h663.703703c56.888889 0 104.296296-47.407407 104.296297-104.296297V341.333333c0-56.888889-47.407407-104.296296-104.296297-104.296296zM881.777778 777.481481c0 26.548148-20.859259 47.407407-47.407408 47.407408H170.666667c-26.548148 0-47.407407-20.859259-47.407408-47.407408V341.333333c0-26.548148 20.859259-47.407407 47.407408-47.407407h663.703703c26.548148 0 47.407407 20.859259 47.407408 47.407407v436.148148z" p-id="57859" fill="#fc3b41"></path><path d="M360.296296 426.666667c-68.266667 0-123.259259 54.992593-123.259259 123.259259s54.992593 123.259259 123.259259 123.259259 123.259259-54.992593 123.25926-123.259259-54.992593-123.259259-123.25926-123.259259z m0 189.629629c-36.02963 0-66.37037-30.340741-66.37037-66.37037s30.340741-66.37037 66.37037-66.37037 66.37037 30.340741 66.370371 66.37037-30.340741 66.37037-66.370371 66.37037zM730.074074 455.111111h-113.777778c-15.17037 0-28.444444 13.274074-28.444444 28.444445s13.274074 28.444444 28.444444 28.444444h113.777778c15.17037 0 28.444444-13.274074 28.444445-28.444444s-13.274074-28.444444-28.444445-28.444445zM730.074074 587.851852h-113.777778c-15.17037 0-28.444444 13.274074-28.444444 28.444444s13.274074 28.444444 28.444444 28.444445h113.777778c15.17037 0 28.444444-13.274074 28.444445-28.444445s-13.274074-28.444444-28.444445-28.444444zM117.57037 193.422222l348.918519-92.918518c15.17037-3.792593 24.651852-18.962963 20.859259-34.133334-3.792593-15.17037-18.962963-24.651852-34.133333-20.859259L102.4 138.42963c-15.17037 3.792593-24.651852 18.962963-20.859259 34.133333 5.688889 15.17037 20.859259 24.651852 36.029629 20.859259z" p-id="57860" fill="#fc3b41"></path></svg>