<?xml version="1.0" standalone="no"?><!DOCTYPE svg PUBLIC "-//W3C//DTD SVG 1.1//EN" "http://www.w3.org/Graphics/SVG/1.1/DTD/svg11.dtd"><svg t="1637648806129" class="icon" viewBox="0 0 1024 1024" version="1.1" xmlns="http://www.w3.org/2000/svg" p-id="6941" xmlns:xlink="http://www.w3.org/1999/xlink" width="200" height="200"><defs><style type="text/css"></style></defs><path d="M789.9 251.85m-147.74 0a147.74 147.74 0 1 0 295.48 0 147.74 147.74 0 1 0-295.48 0Z" fill="#FED547" p-id="6942"></path><path d="M645.46 331.46a5.88 5.88 0 0 0-7.79-2.91l-284.8 129.8a5.88 5.88 0 0 0 4.88 10.71l284.8-129.8a5.89 5.89 0 0 0 2.91-7.8zM617.81 753.76l-251.09-122.9a5.88 5.88 0 1 0-5.17 10.57l251.09 122.9a5.88 5.88 0 0 0 5.17-10.57z" fill="#28CA67" p-id="6943"></path><path d="M789.9 104.11a148.9 148.9 0 0 0-19.17 1.28 147.71 147.71 0 0 1 0 292.93 147.73 147.73 0 1 0 19.17-294.21z" fill="#E2B742" p-id="6944"></path><path d="M259.15 556.05m-147.74 0a147.74 147.74 0 1 0 295.48 0 147.74 147.74 0 1 0-295.48 0Z" fill="#FED547" p-id="6945"></path><path d="M259.15 408.3a148.9 148.9 0 0 0-19.15 1.28 147.71 147.71 0 0 1 0 292.93 147.73 147.73 0 1 0 19.15-294.21z" fill="#E2B742" p-id="6946"></path><path d="M780.91 772.15m-147.74 0a147.74 147.74 0 1 0 295.48 0 147.74 147.74 0 1 0-295.48 0Z" fill="#FED547" p-id="6947"></path><path d="M780.9 624.4a148.9 148.9 0 0 0-19.17 1.28 147.71 147.71 0 0 1 0 292.93A147.73 147.73 0 1 0 780.9 624.4z" fill="#E2B742" p-id="6948"></path><path d="M240 402.42c-84.71 0-153.63 68.92-153.63 153.63S155.27 709.67 240 709.67 393.61 640.75 393.61 556 324.69 402.42 240 402.42z m0 295.49C161.76 697.9 98.12 634.27 98.12 556S161.76 414.18 240 414.18 381.84 477.82 381.84 556 318.2 697.9 240 697.9zM771.91 405.48c84.71 0 153.63-68.92 153.63-153.63S856.62 98.23 771.91 98.23s-153.63 68.92-153.63 153.63 68.92 153.62 153.63 153.62z m0-295.49c78.22 0 141.86 63.64 141.86 141.86s-63.64 141.87-141.86 141.87-141.86-63.64-141.86-141.86S693.69 110 771.91 110zM762.91 618.52c-84.71 0-153.63 68.92-153.63 153.63s68.92 153.62 153.63 153.62 153.63-68.91 153.63-153.62-68.92-153.63-153.63-153.63z m0 295.48c-78.22 0-141.86-63.64-141.86-141.85s63.64-141.86 141.86-141.86 141.86 63.64 141.86 141.86S841.13 914 762.91 914z" fill="#28CA67" p-id="6949"></path></svg>