<?xml version="1.0" standalone="no"?><!DOCTYPE svg PUBLIC "-//W3C//DTD SVG 1.1//EN" "http://www.w3.org/Graphics/SVG/1.1/DTD/svg11.dtd"><svg t="1637050262356" class="icon" viewBox="0 0 1024 1024" version="1.1" xmlns="http://www.w3.org/2000/svg" p-id="44621" xmlns:xlink="http://www.w3.org/1999/xlink" width="200" height="200"><defs><style type="text/css"></style></defs><path d="M512 146.285714c98.157714 0 190.171429 39.15581 259.023238 110.226286 3.267048 3.364571 6.972952 6.241524 11.044571 8.533333C889.344 325.607619 950.857143 415.597714 950.857143 512c0 96.402286-61.513143 186.416762-168.789333 246.930286-4.071619 2.31619-7.777524 5.193143-11.044571 8.557714C702.171429 838.582857 610.157714 877.714286 512 877.714286s-190.147048-39.131429-259.023238-110.226286c-3.267048-3.364571-6.997333-6.241524-11.068952-8.557714C134.656 698.416762 73.142857 608.402286 73.142857 512c0-96.402286 61.513143-186.416762 168.789333-246.930286 4.071619-2.29181 7.801905-5.168762 11.068952-8.533333C321.828571 185.417143 413.817905 146.285714 512 146.285714M512 819.687619c168.423619 0 305.468952-138.020571 305.468952-307.687619 0-169.788952-137.045333-307.931429-305.468952-307.931429C343.552 204.068571 206.506667 342.211048 206.506667 512 206.506667 681.667048 343.552 819.687619 512 819.687619M512 97.52381c-115.321905 0-219.428571 48.030476-294.034286 125.074286C100.449524 288.914286 24.380952 393.752381 24.380952 512c0 118.247619 76.068571 223.085714 193.584762 289.401905C292.571429 878.421333 396.678095 926.47619 512 926.47619c115.321905 0 219.428571-48.054857 294.058667-125.074286C923.550476 735.085714 999.619048 630.247619 999.619048 512c0-118.247619-76.068571-223.085714-193.560381-289.401905C731.428571 145.554286 627.321905 97.52381 512 97.52381L512 97.52381zM512 770.925714c-141.653333 0-256.731429-115.809524-256.731429-258.925714S370.346667 252.830476 512 252.830476c141.677714 0 256.707048 116.053333 256.707048 259.169524S653.677714 770.925714 512 770.925714L512 770.925714z" p-id="44622"></path><path d="M565.881905 353.52381c43.836952 0 79.506286 36.205714 79.506286 80.700952s-35.669333 80.700952-79.506286 80.700952c-43.812571 0-79.481905-36.205714-79.481905-80.700952S522.069333 353.52381 565.881905 353.52381M565.881905 304.761905c-70.948571 0-128.24381 58.026667-128.24381 129.462857 0 71.68 57.295238 129.462857 128.24381 129.462857s128.26819-57.782857 128.26819-129.462857C694.150095 362.788571 636.830476 304.761905 565.881905 304.761905L565.881905 304.761905z" p-id="44623"></path></svg>