<?xml version="1.0" standalone="no"?><!DOCTYPE svg PUBLIC "-//W3C//DTD SVG 1.1//EN" "http://www.w3.org/Graphics/SVG/1.1/DTD/svg11.dtd"><svg t="1638496056637" class="icon" viewBox="0 0 1024 1024" version="1.1" xmlns="http://www.w3.org/2000/svg" p-id="5125" xmlns:xlink="http://www.w3.org/1999/xlink" width="200" height="200"><defs><style type="text/css"></style></defs><path d="M95.674623 529.772861v-93.283323a249.922894 249.922894 0 0 1 249.604521-249.60452h503.666265L776.993085 258.518968a31.837311 31.837311 0 0 0 44.253863 43.93549L955.282029 169.374496a19.102387 19.102387 0 0 0 0-27.061714L821.246948 9.23282a31.837311 31.837311 0 0 0-44.253863 0 31.837311 31.837311 0 0 0 0 43.93549l71.952324 71.315577H345.279144A312.642397 312.642397 0 0 0 32 436.489538v93.601696a31.837311 31.837311 0 0 0 63.674623 0zM955.282029 457.820537a31.837311 31.837311 0 0 0-31.837312 31.837311v93.601696a249.922894 249.922894 0 0 1-250.55964 249.286148H170.173931l71.952324-72.270697a31.837311 31.837311 0 0 0 0-43.93549 31.837311 31.837311 0 0 0-44.253863 0L63.837311 849.419467a19.102387 19.102387 0 0 0 0 27.061714l134.035081 133.079962a31.837311 31.837311 0 1 0 44.253863-43.93549l-71.952324-71.633951h503.666266A312.642397 312.642397 0 0 0 987.11934 582.304424v-93.283322a31.837311 31.837311 0 0 0-31.837311-31.200565z" p-id="5126"></path></svg>