<?xml version="1.0" standalone="no"?><svg t="1637049058151" class="icon" viewBox="0 0 1024 1024" version="1.1" xmlns="http://www.w3.org/2000/svg" p-id="7581" xmlns:xlink="http://www.w3.org/1999/xlink" width="200" height="200"><defs><style type="text/css"></style></defs><path d="M793.895 447.9078125c-50.004375-50.004375-115.1971875-79.2853125-185.1721875-83.58-4.56-12.63375-8.6596875-26.364375-12.1453125-41.6671875-5.068125-22.27125-8.821875-47.889375-10.764375-78.34125-0.474375-7.4296875-0.8390625-15.15-1.0903125-23.17875-0.241875-7.786875-0.376875-15.8690625-0.3946875-24.2578125-0.0290625-0.0028125-0.0553125-0.005625-0.084375-0.0121875 0.0215625-0.211875 0.0571875-0.421875 0.0815625-0.635625 5.5303125-48.459375 47.4421875-86.030625 97.6753125-84.5934375 35.3971875 1.0115625 66.286875 21.6065625 81.90375 51.3853125l47.2171875-9.073125c-18.5821875-46.269375-60.9121875-80.55375-111.9196875-87.5503125-81.976875-11.244375-153.0590625 47.9634375-161.2903125 125.649375-0.0684375 0.6496875-0.1115625 2.323125-0.136875 2.975625l-0.0009375 6.25875c0.016875 5.5340625 0.15 14.14875 0.5053125 24.065625 0.1715625 4.8309375 0.3928125 9.590625 0.6496875 14.2978125 2.6015625 47.6334375 9.54 88.9846875 21.0140625 125.484375 0.028125 0.084375 0.0534375 0.1659375 0.080625 0.25125-26.0334375 2.74875-51.3 8.990625-75.256875 18.4809375l-0.016875 0.001875-0.031875 0.0159375c-35.964375 14.25375-68.971875 35.8434375-97.1503125 64.0228125l8.941875-8.000625c-38.139375 37.2178125-61.861875 89.145-61.861875 146.5171875 0 27.9028125 5.615625 54.51375 15.7659375 78.7790625 24.2109375 57.879375 74.2546875 102.35625 135.64125 118.9509375 16.1446875 5.0390625 33.3046875 7.755 51.088125 7.755 9.478125 0 18.7771875-0.7846875 27.841875-2.2678125 81.5371875-13.3453125 143.95875-84.2821875 143.95875-169.535625 0-19.4746875-3.2634375-38.2021875-9.2615625-55.666875-12.320625-50.9953125-32.150625-85.74-51.489375-119.5884375-5.895-10.321875-11.731875-20.5434375-17.3428125-31.1634375 9.560625 1.610625 18.931875 3.7865625 28.0790625 6.4921875 99.63375 29.47875 172.545 121.824375 172.545 230.89125 0 56.139375-19.3190625 107.85-51.6534375 148.839375-22.95375 25.681875-49.7803125 47.8246875-79.5571875 65.5134375-50.206875 29.8209375-108.7790625 46.978125-171.28875 46.978125-25.6903125 0-50.713125-2.90625-74.769375-8.385-149.6578125-34.0921875-261.68625-168.2390625-261.68625-328.06875 0-166.498125 121.575-305.113125 280.60875-331.7934375l-6.136875-46.2459375c-78.5746875 12.7134375-151.0190625 49.5178125-208.4728125 106.8140625-71.746875 71.5490625-112.3378125 168.99375-112.57125 270.3196875-0.2371875 102.9740625 39.8821875 199.8028125 112.87875 272.4384375 72.68625 72.32625 171.740625 112.54875 274.2740625 111.4715625 68.3634375-0.7171875 133.869375-19.24875 191.2190625-53.371875 25.3190625-13.329375 48.7640625-30.5371875 69.5728125-51.3459375 7.5309375-7.5309375 14.574375-15.418125 21.1490625-23.600625 40.816875-50.7909375 63.0028125-113.4665625 63.0028125-179.5621875 0-29.3053125-4.3696875-57.93375-12.78-85.1578125-13.614375-44.07375-37.8290625-84.459375-71.37375-118.0040625ZM410.061875 427.780625c0.7228125-0.5934375 1.4596875-1.1709375 2.191875-1.755-0.7828125 0.620625-1.5609375 1.2478125-2.3353125 1.880625l0.1415625-0.125625ZM654.9003125 577.4853125c3.118125 13.2534375 5.6540625 27.736875 7.456875 43.8421875-0.5878125 61.2346875-45.3440625 112.0940625-103.875 122.1853125-6.2409375 0.7509375-12.58875 1.1484375-19.0265625 1.1484375-13.8553125 0-27.29625-1.79625-40.111875-5.15625-67.8890625-17.803125-118.12125-79.681875-118.12125-153.076875 0-20.9915625 4.1184375-41.03625 11.574375-59.3821875 9.465-23.2903125 24.315-43.8384375 43.0059375-60.0778125 3.294375-2.7778125 6.658125-5.4721875 10.0996875-8.0709375 37.02375-27.9721875 82.348125-45.5090625 131.565-48.195 4.141875 9.069375 8.4346875 17.62875 12.800625 25.8609375 4.651875 8.77125 9.3853125 17.175 14.09625 25.4465625 1.1334375 1.989375 2.265 3.9703125 3.39375 5.9465625 18.575625 32.5115625 36.34875 63.6534375 47.1421875 109.53Z" p-id="7582"></path></svg>