<?xml version="1.0" standalone="no"?><!DOCTYPE svg PUBLIC "-//W3C//DTD SVG 1.1//EN" "http://www.w3.org/Graphics/SVG/1.1/DTD/svg11.dtd"><svg t="1637050085894" class="icon" viewBox="0 0 1024 1024" version="1.1" xmlns="http://www.w3.org/2000/svg" p-id="35453" xmlns:xlink="http://www.w3.org/1999/xlink" width="200" height="200"><defs><style type="text/css"></style></defs><path d="M145.066667 755.771733c0-73.544533 58.026667-127.428267 131.413333-127.428266 29.013333 0 53.947733 5.994667 77.841067 23.099733l0.6656-417.322667c0-25.655467 20.48-46.178133 44.373333-46.178133l438.613333-51.310933h3.413334c23.893333-1.706667 46.08 18.816 46.08 44.471466v494.2848c0 35.9168-13.653333 68.411733-39.253334 92.356267-23.893333 23.944533-58.026667 37.627733-92.16 37.627733-71.68 0-131.413333-58.154667-131.413333-131.694933 0-71.8336 58.026667-131.694933 131.413333-131.694933 29.013333 0 56.32 8.379733 78.506667 25.4848V345.2928l-426.666667 47.889067v362.589866C406.186667 829.316267 348.16 887.466667 276.48 887.466667S145.066667 829.312 145.066667 755.771733z m131.413333-76.983466c-43.101867 0-78.506667 35.490133-78.506667 78.698666s35.4048 78.698667 78.506667 78.698667c43.101867 0 78.506667-35.490133 78.506667-78.698667-1.536-44.7488-35.4048-78.698667-78.506667-78.698666z m479.573333-82.094934c-43.101867 0-78.506667 35.4816-78.506666 78.677334 0 43.191467 35.4048 78.673067 78.506666 78.673066 43.101867 0 78.506667-35.4816 78.506667-78.677333 0-43.191467-35.4048-78.677333-78.506667-78.677333z m76.8-298.6112V187.925333L405.333333 238.545067V345.6l427.52-47.517867z" p-id="35454"></path></svg>