<?xml version="1.0" standalone="no"?><!DOCTYPE svg PUBLIC "-//W3C//DTD SVG 1.1//EN" "http://www.w3.org/Graphics/SVG/1.1/DTD/svg11.dtd"><svg t="1637648759674" class="icon" viewBox="0 0 1024 1024" version="1.1" xmlns="http://www.w3.org/2000/svg" p-id="2895" xmlns:xlink="http://www.w3.org/1999/xlink" width="200" height="200"><defs><style type="text/css"></style></defs><path d="M520.533333 866.133333c-17.066667 0-29.866667-4.266667-38.4-17.066666l-38.4-38.4H166.4c-38.4 0-68.266667-29.866667-68.266667-68.266667V243.2c0-38.4 29.866667-68.266667 68.266667-68.266667h712.533333c38.4 0 68.266667 29.866667 68.266667 68.266667v494.933333c0 38.4-29.866667 68.266667-68.266667 68.266667h-277.333333l-38.4 38.4c-12.8 17.066667-25.6 21.333333-42.666667 21.333333zM166.4 234.666667c-4.266667 0-12.8 4.266667-12.8 12.8v494.933333c0 4.266667 4.266667 12.8 12.8 12.8H469.333333l55.466667 55.466667 51.2-55.466667h302.933333c4.266667 0 12.8-4.266667 12.8-12.8V243.2c0-4.266667-4.266667-12.8-12.8-12.8H166.4z" fill="#6A3906" p-id="2896"></path><path d="M797.866667 682.666667h-554.666667c-21.333333 0-34.133333-17.066667-34.133333-34.133334V337.066667c0-21.333333 17.066667-38.4 34.133333-38.4h554.666667c21.333333 0 34.133333 17.066667 34.133333 34.133333v311.466667c4.266667 21.333333-12.8 38.4-34.133333 38.4z" fill="#F5CB2B" p-id="2897"></path><path d="M708.266667 443.733333H337.066667c-17.066667 0-29.866667-12.8-29.866667-29.866666 0-17.066667 12.8-29.866667 29.866667-29.866667h371.2c17.066667 0 29.866667 12.8 29.866666 29.866667 0 17.066667-12.8 29.866667-29.866666 29.866666zM512 622.933333H337.066667c-17.066667 0-29.866667-12.8-29.866667-29.866666 0-17.066667 12.8-29.866667 29.866667-29.866667H512c17.066667 0 29.866667 12.8 29.866667 29.866667 0 17.066667-12.8 29.866667-29.866667 29.866666z" fill="#6A3906" p-id="2898"></path></svg>