<?xml version="1.0" standalone="no"?><!DOCTYPE svg PUBLIC "-//W3C//DTD SVG 1.1//EN" "http://www.w3.org/Graphics/SVG/1.1/DTD/svg11.dtd"><svg t="1639970578324" class="icon" viewBox="0 0 1024 1024" version="1.1" xmlns="http://www.w3.org/2000/svg" p-id="12324" xmlns:xlink="http://www.w3.org/1999/xlink" width="200" height="200"><defs><style type="text/css"></style></defs><path d="M477.747249 468.892844c129.173611 0 233.888963-104.973102 233.888964-234.445423C711.636213 104.946128 606.92086 0.001998 477.747249 0.001998c-129.172612 0-233.873978 104.94413-233.873978 234.445423 0 129.472321 104.701366 234.445423 233.873978 234.445423M766.966503 1005.499958c-116.644773 0-211.21797-95.502296-211.21797-213.330919 0-113.472852 87.7718-206.003032 198.458356-212.689542-10.086209-10.000293-20.114475-19.071487-29.742129-26.971818-73.073068-60.000757-126.544163-57.286392-126.544163-57.286392l-120.173348-0.428584h-0.013986l-120.173348 0.428584s-53.458108-2.714365-126.529177 57.286392c-73.073068 60.001756-168.016905 183.14522-161.260464 327.06152 6.785413 143.9163 168.502434 143.886329 407.96199 144.429802h0.013986c120.115404-0.270737 220.659805-0.413599 291.904647-18.627918-0.899127 0-1.786266 0.128875-2.684394 0.128875" fill="#737783" p-id="12325"></path><path d="M765.093322 607.279512c-100.543402 0-182.045288 82.773651-182.045289 184.874542 0 102.129862 81.501886 184.902515 182.045289 184.902514 100.559387 0 182.060274-82.773651 182.060273-184.902514 0-102.10089-81.500887-184.874542-182.060273-184.874542m55.858777 303.032845c-5.728439 5.80037-13.287102 8.742514-20.843767 8.742514-7.414802 0-14.812621-2.814268-20.528073-8.429818-11.514823-11.330002-11.656685-29.858017-0.314695-41.37184l33.902092-34.42858H667.50605c-15.641816 0-28.44339-12.800574-28.44339-28.428404 0-15.656802 12.800574-28.457376 28.44339-28.457377h159.660017l-47.901502-48.64478c-11.34199-11.512824-11.200128-30.027852 0.314695-41.369842 11.512824-11.329003 30.014864-11.200128 41.37184 0.312696l89.129482 90.50215c11.215113 11.399934 11.215113 29.686184 0 41.057145l-89.128483 90.516136z" fill="#737783" p-id="12326"></path></svg>