<?xml version="1.0" standalone="no"?><!DOCTYPE svg PUBLIC "-//W3C//DTD SVG 1.1//EN" "http://www.w3.org/Graphics/SVG/1.1/DTD/svg11.dtd"><svg t="1637128484575" class="icon" viewBox="0 0 1024 1024" version="1.1" xmlns="http://www.w3.org/2000/svg" p-id="4980" xmlns:xlink="http://www.w3.org/1999/xlink" width="200" height="200"><defs><style type="text/css"></style></defs><path d="M519.741 769H153.259C104.042 769 64 728.959 64 679.741V345.259C64 296.042 104.042 256 153.259 256h366.482C568.959 256 609 296.042 609 345.259v334.482C609 728.959 568.959 769 519.741 769zM153.259 316C137.125 316 124 329.125 124 345.259v334.482C124 695.875 137.125 709 153.259 709h366.482C535.875 709 549 695.875 549 679.741V345.259C549 329.125 535.875 316 519.741 316H153.259z"  p-id="4981"></path><path d="M888.705 739l-152.41-59.868c-20.297-7.157-38.891-10.778-41.295-41.204V387.072c2.193-19.992 17.225-32.286 41.295-41.204L888.705 286C911.417 286 930 304.542 930 327.204v370.592C930 720.458 911.417 739 888.705 739z"  p-id="4982"></path><path d="M888.705 769h-5.681l-157.188-61.745c-1.435-0.503-2.86-0.987-4.269-1.467-19.717-6.712-52.717-17.945-56.475-65.497l-0.093-1.18v-253.68l0.179-1.63c1.846-16.827 9.114-31.374 21.604-43.237 9.639-9.154 22.333-16.588 38.801-22.721L883.024 256h5.681C928.018 256 960 287.942 960 327.204v370.592C960 737.058 928.018 769 888.705 769zM725 636.589c0.412 3.989 1.232 6.076 1.688 6.469 2.096 1.806 8.534 3.997 14.215 5.932 1.771 0.603 3.563 1.214 5.369 1.85l0.992 0.37 145.319 57.083c4.28-1.608 7.417-5.767 7.417-10.496V327.204c0-4.729-3.137-8.888-7.417-10.496l-145.865 57.291c-18.104 6.707-21.078 12.271-21.718 15.175v247.415z"  p-id="4983"></path></svg>