<?xml version="1.0" standalone="no"?><!DOCTYPE svg PUBLIC "-//W3C//DTD SVG 1.1//EN" "http://www.w3.org/Graphics/SVG/1.1/DTD/svg11.dtd"><svg t="1639965553221" class="icon" viewBox="0 0 1024 1024" version="1.1" xmlns="http://www.w3.org/2000/svg" p-id="3729" xmlns:xlink="http://www.w3.org/1999/xlink" width="200" height="200"><defs><style type="text/css"></style></defs><path d="M0 256V25.6C0 11.465 11.462 0 25.6 0h230.402c14.138 0 25.6 11.462 25.6 25.6 0 14.137-11.462 25.6-25.6 25.6H76.8c-14.137 0-25.6 11.465-25.6 25.6V256c0 14.14-11.46 25.6-25.6 25.6C11.465 281.6 0 270.14 0 256z m256.002 716.8H76.8c-14.137 0-25.6-11.46-25.6-25.6V768.025l0.002-0.025c0-14.14-11.46-25.6-25.6-25.6-14.135 0-25.6 11.46-25.6 25.6H0v230.4c0 14.14 11.462 25.6 25.6 25.6h230.402c14.14 0 25.6-11.46 25.6-25.6 0.001-14.14-11.459-25.6-25.6-25.6zM998.4 0H768c-14.14 0-25.6 11.462-25.6 25.6 0 14.137 11.46 25.6 25.6 25.6h179.2c14.14 0 25.6 11.465 25.6 25.6V256c0 14.14 11.46 25.6 25.601 25.6 14.135 0 25.6-11.46 25.6-25.6V25.6C1024 11.465 1012.54 0 998.4 0z m0 742.4c-14.141 0-25.601 11.46-25.601 25.6V947.2c0 14.14-11.46 25.6-25.6 25.6H768c-14.14 0-25.6 11.46-25.6 25.601 0 14.14 11.46 25.6 25.6 25.6h230.4c14.14 0 25.6-11.46 25.6-25.6V768c0-14.14-11.47-25.6-25.6-25.6zM51.197 512c0 14.14 11.463 25.6 25.6 25.6H947.2c14.135 0 25.6-11.46 25.6-25.6s-11.465-25.6-25.6-25.6H76.797c-14.137 0-25.6 11.46-25.6 25.6z" fill="#231815" p-id="3730"></path></svg>