<?xml version="1.0" standalone="no"?><!DOCTYPE svg PUBLIC "-//W3C//DTD SVG 1.1//EN" "http://www.w3.org/Graphics/SVG/1.1/DTD/svg11.dtd"><svg t="1639556672729" class="icon" viewBox="0 0 1332 1024" version="1.1" xmlns="http://www.w3.org/2000/svg" p-id="1401" xmlns:xlink="http://www.w3.org/1999/xlink" width="260.15625" height="200"><defs><style type="text/css"></style></defs><path d="M166.565383 299.817689m66.626153 0l0 0q66.626153 0 66.626153 66.626153l0 499.696148q0 66.626153-66.626153 66.626154l0 0q-66.626153 0-66.626153-66.626154l0-499.696148q0-66.626153 66.626153-66.626153Z" fill="#f43319" p-id="1402"></path><path d="M466.383072 632.948455m66.626153 0l0 0q66.626153 0 66.626153 66.626153l0 166.565382q0 66.626153-66.626153 66.626154l0 0q-66.626153 0-66.626153-66.626154l0-166.565382q0-66.626153 66.626153-66.626153Z" fill="#f43319" p-id="1403"></path><path d="M766.200761 66.626153m66.626153 0l0 0q66.626153 0 66.626153 66.626153l0 732.887684q0 66.626153-66.626153 66.626154l0 0q-66.626153 0-66.626153-66.626154l0-732.887684q0-66.626153 66.626153-66.626153Z" fill="#f43319" p-id="1404"></path><path d="M1066.01845 366.443842m66.626153 0l0 0q66.626153 0 66.626153 66.626153l0 433.069995q0 66.626153-66.626153 66.626154l0 0q-66.626153 0-66.626153-66.626154l0-433.069995q0-66.626153 66.626153-66.626153Z" fill="#f43319" p-id="1405"></path></svg>