<?xml version="1.0" standalone="no"?><!DOCTYPE svg PUBLIC "-//W3C//DTD SVG 1.1//EN" "http://www.w3.org/Graphics/SVG/1.1/DTD/svg11.dtd"><svg t="1639981114097" class="icon" viewBox="0 0 1024 1024" version="1.1" xmlns="http://www.w3.org/2000/svg" p-id="26345" xmlns:xlink="http://www.w3.org/1999/xlink" width="200" height="200"><defs><style type="text/css"></style></defs><path d="M513 1C232.5 1 3 230.5 3 511s229.5 510 510 510 510-229.5 510-510S793.5 1 513 1zM365.7 811.3l-70.8-17 2.8-14.2c25.5-99.2 76.5-187 147.3-257.8-22.7-36.8-19.8-85 8.5-119 34-36.8 87.8-45.3 130.3-17 42.5 28.3 56.7 82.2 34 127.5-19.8 42.5-68 62.3-113.3 53.8-68 62.4-116.2 141.7-138.8 232.4v11.3zM768 604.5c-48.2 85-138.8 136-235.2 136-14.2 0-28.3 0-45.3-2.8l-14.2-2.8 11.3-70.8 14.2 2.8c85 14.2 170-28.3 209.7-104.8 39.7-76.5 25.5-170-36.8-229.5-65.2-65.2-170-76.5-249.3-25.5-79.3 51-110.5 153-73.7 240.8l5.7 14.2-68 28.3-5.7-14.2c-14.2-31.2-19.8-68-19.8-102 0-113.3 70.8-215.3 178.5-255 107.7-39.7 226.7-8.5 300.3 79.3 73.6 82.2 85 206.8 28.3 306z m0 0" fill="#f43319" p-id="26346"></path></svg>