<?xml version="1.0" standalone="no"?><!DOCTYPE svg PUBLIC "-//W3C//DTD SVG 1.1//EN" "http://www.w3.org/Graphics/SVG/1.1/DTD/svg11.dtd"><svg t="1639981050941" class="icon" viewBox="0 0 1024 1024" version="1.1" xmlns="http://www.w3.org/2000/svg" p-id="25175" data-spm-anchor-id="a313x.7781069.0.i50" xmlns:xlink="http://www.w3.org/1999/xlink" width="200" height="200"><defs><style type="text/css"></style></defs><path d="M992 825.536a32 32 0 0 1-32-32C960 693.504 885.952 560 779.712 528.32a1038.08 1038.08 0 0 0-24.32-6.08 32.064 32.064 0 0 1-10.624-57.6c35.328-24 56.384-63.936 56.384-106.88 0-69.76-56.128-126.208-127.808-128.512a32 32 0 0 1 1.088-64h1.088c106.368 3.456 189.696 88 189.696 192.448 0 43.776-14.656 85.44-40.768 118.912C945.152 529.152 1024 676.928 1024 793.536a32 32 0 0 1-32 32z" p-id="25176" data-spm-anchor-id="a313x.7781069.0.i51" class="selected" fill="#f43319"></path><path d="M892.672 894.592l-14.784-0.192a32 32 0 0 1 0.704-64h0.704c11.392 0.256 15.552 0.128 21.248 0.128l19.52-0.128c14.72 0.256 22.976-3.264 29.824-9.92a36.992 36.992 0 0 0 10.176-26.88 32 32 0 0 1 64 0c0 28.16-10.432 53.952-29.312 72.512-19.072 18.752-44.288 28.48-75.328 28.288l-17.92 0.128-8.832 0.064zM236.16 960c-60.544 0-107.904-0.064-127.488-0.192C0 958.976 0 885.696 0 854.4c0-160.64 94.72-309.632 232.128-375.36-43.264-43.264-67.2-104.128-67.2-174.336C164.992 171.968 272.064 64 403.712 64s238.656 107.968 238.656 240.704c0 69.824-24.896 130.816-69.888 174.592 138.816 66.56 236.608 218.112 235.136 375.424-0.576 65.792-41.216 105.152-108.736 105.152L236.16 960z m167.552-832c-96.32 0-174.72 79.232-174.72 176.704 0 70.656 29.76 125.888 83.904 155.52a32 32 0 0 1-6.528 58.816C165.952 559.424 64 700.48 64 854.4c0 31.552 0 41.152 45.184 41.408 19.584 0.128 66.688 0.192 126.976 0.192l462.592-0.192c32.96 0 44.608-10.944 44.864-41.664 1.408-150.4-104.256-294.4-245.824-335.04a32.128 32.128 0 0 1-6.528-58.88c55.36-30.336 87.104-86.976 87.104-155.52 0-97.472-78.4-176.704-174.656-176.704z" p-id="25177" data-spm-anchor-id="a313x.7781069.0.i49" class="selected" fill="#f43319"></path></svg>