<?xml version="1.0" standalone="no"?><!DOCTYPE svg PUBLIC "-//W3C//DTD SVG 1.1//EN" "http://www.w3.org/Graphics/SVG/1.1/DTD/svg11.dtd"><svg t="1639986345521" class="icon" viewBox="0 0 1024 1024" version="1.1" xmlns="http://www.w3.org/2000/svg" p-id="35661" xmlns:xlink="http://www.w3.org/1999/xlink" width="200" height="200"><defs><style type="text/css"></style></defs><path d="M388.6 100.4C339 110.5 327.9 118.6 327.9 148.9c0 25.3 1 25.3 53.6 18.2 70.8-11.1 248.9-7.1 280.2 6.1 35.4 13.2 49.6 39.5 56.7 103.2 8.1 70.8-14.2 98.1-78.9 98.1-24.3 1-96.1 3-161.9 5.1-147.7 5.1-153.8 0-155.8-111.3-1-40.5-4-77.9-8.1-85-11.1-18.2-44.5-13.1-56.7 8.1-11.1 22.3-13.2 118.4-2 173 12.1 63.7 34.4 84 98.1 89 47.5 4 54.6 7.1 43.5 19.2-28.3 34.4-126.5 73.9-186.1 73.9-47.6 0-69.8 19.2-59.7 50.6 10.1 32.4 74.9 28.3 191.2-13.1 38.4-14.2 124.4-82 145.7-116.3 17.2-26.3 19.2-27.3 118.4-26.3 123.4 1 161.9-11.1 182.1-60.7 18.2-43.5 19.2-71.8 4.1-134.5C766.9 140.8 752.8 125.7 666.8 103.4 621.2 91.3 443.2 89.3 388.6 100.4L388.6 100.4z" fill="#ffffff" p-id="35662"></path><path d="M386.5 250.1c-5.1 7.1-8.1 20.2-6.1 30.3 3 16.2 16.2 18.2 129.5 18.2l126.5-1 3-27.3c4-32.4 11.1-30.3-132.5-31.4C432.1 238 393.6 242 386.5 250.1L386.5 250.1 386.5 250.1z" fill="#ffffff" p-id="35663"></path><path d="M561.6 466.6c-18.2 7.1-22.3 15.2-18.2 34.4 4 23.3-7.1 33.4-108.3 100.1-70.8 47.6-134.5 80.9-173 92.1-112.3 32.4-133.5 48.6-106.2 80.9 42.5 50.6 230.7-44.5 433-219.5 43.5-37.4 81.9-35.4 101.2 4 10.1 22.3 20.2 28.3 46.5 28.3 72.8 0 95.1 84 42.5 160.9-52.6 75.9-143.7 110.3-207.4 77.9-28.3-15.2-32.4-15.2-37.4-1-8.1 19.2 12.1 68.8 37.4 92.1 38.4 34.4 151.7-1 232.7-73.8 51.6-46.5 68.8-78.9 73.8-141.6 9.1-113.3-77.9-218.5-194.2-231.7-26.3-3-58.7-7.1-72.8-8.1C597 459.5 574.7 461.5 561.6 466.6L561.6 466.6 561.6 466.6z" fill="#ffffff" p-id="35664"></path><path d="M604 645.7C467.5 753.9 352.1 818.6 239.8 849c-65.8 18.2-69.8 81.9-5.1 81.9 39.5 0 152.8-48.6 214.5-92.1 31.3-22.3 64.7-39.5 73.8-39.5s17.2-6.1 17.2-13.2c0-8.1 26.3-36.4 57.7-63.7 94.1-80.9 97.1-84 83-101.2C664.7 601.1 658.7 603.2 604 645.7L604 645.7z" fill="#ffffff" p-id="35665"></path></svg>