<?xml version="1.0" standalone="no"?><!DOCTYPE svg PUBLIC "-//W3C//DTD SVG 1.1//EN" "http://www.w3.org/Graphics/SVG/1.1/DTD/svg11.dtd"><svg t="1639982789749" class="icon" viewBox="0 0 1024 1024" version="1.1" xmlns="http://www.w3.org/2000/svg" p-id="30646" xmlns:xlink="http://www.w3.org/1999/xlink" width="200" height="200"><defs><style type="text/css"></style></defs><path d="M514.2016 509.5936m-450.816 0a450.816 450.816 0 1 0 901.632 0 450.816 450.816 0 1 0-901.632 0Z" fill="#FFE3DB" p-id="30647"></path><path d="M302.9504 503.2448l49.8176-54.1696a28.16 28.16 0 0 1 45.2096 5.1712l36.2496 63.7952 48.9472-105.3696c4.608-9.8816 14.4896-16.2304 25.3952-16.2816 10.8032 0.1024 20.8384 6.1952 25.5488 16.0256l55.8592 116.6848 17.6128-37.3248a28.2112 28.2112 0 0 1 25.4464-16.128h209.7664c5.5296-29.952 5.1712-61.696-2.2528-95.5392-23.9616-108.9536-109.2096-177.1008-230.4-152.6272-38.0416 7.68-68.0448 28.5696-94.7712 55.9104-2.2528-0.9728-3.1744-1.1776-3.7888-1.6896-1.6896-1.4336-3.328-2.9184-4.9152-4.5056-34.7648-35.9936-77.7216-52.5312-127.1808-54.528-59.0848-2.3552-109.2608 16.9984-146.8416 62.976-49.408 60.416-62.7712 143.4112-40.4992 217.6512h110.7968z" fill="#F23D4F" p-id="30648"></path><path d="M650.9056 531.968l-35.2768 74.752a28.13952 28.13952 0 0 1-25.3952 16.128h-0.0512c-10.8544 0-20.736-6.2464-25.3952-16.0256L509.0816 490.5472l-46.848 100.7616a28.2368 28.2368 0 0 1-24.3712 16.2816c-10.5472 0.4096-20.4288-5.0688-25.6512-14.2336l-44.1856-77.6704-32.0512 34.8672a28.21632 28.21632 0 0 1-20.736 9.1136H217.2928c2.9696 4.8128 6.0416 9.5744 9.3696 14.2336 31.3856 44.032 69.376 81.7152 111.2576 115.3536 43.1104 34.6624 87.1936 68.1984 131.5328 101.2736 27.8016 20.736 58.0096 22.2208 84.0192 3.4304 75.6736-54.784 151.808-109.1072 215.04-178.944 23.6544-26.112 42.8544-53.6576 56.32-82.8928h-173.9264z" fill="#F23D4F" p-id="30649"></path><path d="M739.9936 240.8448c-35.9936-17.8176-79.872-23.5008-129.8432-13.4144-38.0416 7.68-68.0448 28.5696-94.7712 55.9104-2.2528-0.9728-3.1744-1.1776-3.7888-1.6896-1.6896-1.4336-3.328-2.9184-4.9152-4.5056-34.7648-35.9936-77.7216-52.5312-127.1808-54.528-59.0848-2.3552-109.2608 16.9984-146.8416 62.976-49.408 60.416-62.7712 143.4112-40.4992 217.6512h110.7456l49.8176-54.1696a28.16 28.16 0 0 1 45.2096 5.1712l36.2496 63.7952 48.9472-105.3696c4.608-9.8816 14.4896-16.2304 25.3952-16.2816 10.8032 0.1024 20.8384 6.1952 25.5488 16.0256l55.8592 116.6848 17.6128-37.3248a28.2112 28.2112 0 0 1 25.4464-16.128h96.9728a449.80736 449.80736 0 0 0 20.8896-135.8848c0.0512-33.9968-3.7376-67.072-10.8544-98.9184z" fill="#FC4956" p-id="30650"></path><path d="M707.9424 531.968h-57.0368l-35.2768 74.752a28.13952 28.13952 0 0 1-25.3952 16.128h-0.0512c-10.8544 0-20.736-6.2464-25.3952-16.0256L509.0816 490.5472l-46.848 100.7616a28.2368 28.2368 0 0 1-24.3712 16.2816c-10.5472 0.4096-20.4288-5.0688-25.6512-14.2336l-44.1856-77.6704-32.0512 34.8672a28.21632 28.21632 0 0 1-20.736 9.1136H217.2928c2.9696 4.8128 6.0416 9.5744 9.3696 14.2336 31.3856 44.032 69.376 81.7152 111.2576 115.3536 33.5872 26.9824 67.6864 53.248 102.0928 79.2064 118.4768-38.7584 215.3472-125.0816 267.9296-236.4928z" fill="#FC4956" p-id="30651"></path><path d="M610.1504 227.4304c-38.0416 7.68-68.0448 28.5696-94.7712 55.9104-2.2528-0.9728-3.1744-1.1776-3.7888-1.6896-1.6896-1.4336-3.328-2.9184-4.9152-4.5056-34.7648-35.9936-77.7216-52.5312-127.1808-54.528-59.0848-2.3552-109.2608 16.9984-146.8416 62.976-49.408 60.416-62.7712 143.4112-40.4992 217.6512h110.7456l49.8176-54.1696a28.16 28.16 0 0 1 45.2096 5.1712l36.2496 63.7952 48.9472-105.3696c4.608-9.8816 14.4896-16.2304 25.3952-16.2816 10.8032 0.1024 20.8384 6.1952 25.5488 16.0256l12.1856 25.4976a448.03072 448.03072 0 0 0 79.0016-212.9408c-4.9152 0.6144-9.984 1.4336-15.104 2.4576zM368.0768 515.6352l-32.0512 34.8672a28.21632 28.21632 0 0 1-20.736 9.1136H217.2928c2.9696 4.8128 6.0416 9.5744 9.3696 14.2336 12.032 16.8448 25.0368 32.768 38.8096 47.872 47.9744-9.5744 93.184-26.7264 134.3488-50.2272l-31.744-55.8592z" fill="#FF5C64" p-id="30652"></path><path d="M456.5504 240.7424c-23.4496-11.2128-49.2032-16.9472-77.056-18.0736-59.0848-2.3552-109.2608 16.9984-146.8416 62.976-38.8608 47.5136-55.3472 109.0048-49.7664 169.216 117.248-32.1536 215.3472-110.4384 273.664-214.1184z" fill="#FF716E" p-id="30653"></path></svg>