<?xml version="1.0" standalone="no"?><!DOCTYPE svg PUBLIC "-//W3C//DTD SVG 1.1//EN" "http://www.w3.org/Graphics/SVG/1.1/DTD/svg11.dtd"><svg t="1640227057471" class="icon" viewBox="0 0 1024 1024" version="1.1" xmlns="http://www.w3.org/2000/svg" p-id="4840" xmlns:xlink="http://www.w3.org/1999/xlink" width="200" height="200"><defs><style type="text/css"></style></defs><path d="M512 1024C229.239467 1024 0 794.760533 0 512 0 229.239467 229.239467 0 512 0a30.1056 30.1056 0 1 1 0 60.245333 451.754667 451.754667 0 1 0 268.1856 88.234667 30.139733 30.139733 0 0 1 35.84-48.469333A512 512 0 0 1 512 1024z" p-id="4841" ></path><path d="M512 587.298133a30.1056 30.1056 0 0 1-30.1056-30.1056V30.1056a30.1056 30.1056 0 1 1 60.2112 0v527.086933a30.1056 30.1056 0 0 1-30.1056 30.1056z" p-id="4842" ></path><path d="M512 609.723733a30.1056 30.1056 0 0 1-21.230933-8.874666l-127.863467-127.863467a30.1056 30.1056 0 0 1 42.632533-42.461867L512 537.019733l106.496-106.496a30.1056 30.1056 0 0 1 42.5984 42.461867l-127.863467 127.863467a30.1056 30.1056 0 0 1-21.230933 8.874666z" p-id="4843" ></path></svg>