<?xml version="1.0" standalone="no"?><!DOCTYPE svg PUBLIC "-//W3C//DTD SVG 1.1//EN" "http://www.w3.org/Graphics/SVG/1.1/DTD/svg11.dtd"><svg t="1639968168551" class="icon" viewBox="0 0 1024 1024" version="1.1" xmlns="http://www.w3.org/2000/svg" p-id="8567" xmlns:xlink="http://www.w3.org/1999/xlink" width="200" height="200"><defs><style type="text/css"></style></defs><path d="M679.074 749.137H339.537c-80.842 5.39-150.905-59.284-156.295-140.126-5.39-75.453 59.284-145.516 140.126-150.906 0-97.01 75.453-177.852 177.853-188.631 102.4-5.39 188.632 64.673 204.8 161.684 86.232 10.779 145.516 86.231 140.126 172.463-10.779 86.232-80.842 150.905-167.073 145.516z m-323.369-48.505h323.369c37.726 0 75.452-21.558 97.01-53.895 21.558-32.337 21.558-75.453 0-107.79s-53.895-53.894-97.01-53.894c-5.39 0-16.169-5.39-21.558-5.39-5.39-5.39-10.78-10.779-10.78-16.168 5.39-80.842-53.894-140.127-129.347-140.127s-140.126 59.285-140.126 134.737v5.39c64.674 16.168 107.79 75.452 107.79 140.126 0 10.779-5.39 16.168-16.169 21.558-10.779 5.39-16.168 5.39-26.947 0-5.39 0-10.78-10.779-10.78-21.558 0-48.505-43.115-91.621-97.01-91.621s-97.01 43.116-97.01 91.621c0 53.895 43.116 91.621 97.01 91.621h10.78s10.778 0 10.778 5.39z" p-id="8568"></path><path d="M512 53.895c253.305 0 458.105 204.8 458.105 458.105S765.305 970.105 512 970.105 53.895 765.305 53.895 512 258.695 53.895 512 53.895M512 0C231.747 0 0 231.747 0 512s231.747 512 512 512 512-231.747 512-512S792.253 0 512 0z" p-id="8569"></path></svg>