<?xml version="1.0" standalone="no"?><!DOCTYPE svg PUBLIC "-//W3C//DTD SVG 1.1//EN" "http://www.w3.org/Graphics/SVG/1.1/DTD/svg11.dtd"><svg t="1639980948557" class="icon" viewBox="0 0 1024 1024" version="1.1" xmlns="http://www.w3.org/2000/svg" p-id="23021" data-spm-anchor-id="a313x.7781069.0.i25" xmlns:xlink="http://www.w3.org/1999/xlink" width="200" height="200"><defs><style type="text/css"></style></defs><path d="M290.34496 231.69024C305.3568 123.94496 398.88896 40.96 512 40.96c113.11104 0 206.6432 82.98496 221.65504 190.73024h141.1072c21.504 0 39.34208 16.46592 40.81664 37.66272l46.8992 670.88384a40.59136 40.59136 0 0 1-38.01088 43.13088c-1.39264 0.08192-1.39264 0.08192-2.80576 0.08192H102.33856A40.67328 40.67328 0 0 1 61.44 943.02208c0-1.39264 0-1.39264 0.1024-2.78528l46.85824-670.88384a40.71424 40.71424 0 0 1 40.81664-37.66272h141.1072z m63.3856 0h316.53888C655.872 158.26944 590.47936 102.8096 512 102.8096s-143.872 55.45984-158.26944 128.88064z m-65.49504 61.8496H169.43104L125.5424 921.6h772.9152l-43.88864-628.03968h-118.784v158.96576h-62.5664v-158.96576H350.78144v158.96576h-62.54592v-158.96576z" p-id="23022" fill="#f43319"></path></svg>