<?xml version="1.0" standalone="no"?><!DOCTYPE svg PUBLIC "-//W3C//DTD SVG 1.1//EN" "http://www.w3.org/Graphics/SVG/1.1/DTD/svg11.dtd"><svg t="1639969212567" class="icon" viewBox="0 0 1024 1024" version="1.1" xmlns="http://www.w3.org/2000/svg" p-id="11072" xmlns:xlink="http://www.w3.org/1999/xlink" width="200" height="200"><defs><style type="text/css"></style></defs><path d="M928.708 631.165c-10.55-7.873-25.681-7.958-36.323-0.221-51.451 37.408-112.368 57.181-176.162 57.181-165.384 0-299.932-134.55-299.932-299.934 0-102.947 51.881-197.53 138.788-253.004 11.363-7.254 16.617-20.867 13.072-33.884-3.553-13.003-14.989-22.065-28.459-22.548-6.098-0.219-11.2-0.319-16.041-0.319-243.004 0-440.702 197.698-440.702 440.702s197.698 440.699 440.702 440.699c186.509 0 353.539-118.118 415.629-293.922 4.494-12.72 0.247-26.686-10.572-34.75z m-405.054 267.41c-209.224 0-379.44-170.216-379.44-379.437 0-180.42 128.231-335.588 302.461-371.598-59.303 66.024-91.65 150.461-91.646 240.65 0 199.165 162.029 361.198 361.194 361.198 43.171 0 85.003-7.411 124.72-22.06-69.831 106.273-189.028 171.247-317.289 171.247z" p-id="11073"></path><path d="M578.717 553.718c3.913 13.058 15.702 21.832 29.335 21.835h161.76c16.891 0 30.632-13.741 30.632-30.632 0-16.891-13.741-30.632-30.632-30.632h-59.625l76.481-50.411c11.382-7.503 16.395-21.315 12.483-34.371-3.916-13.054-15.703-21.83-29.338-21.832H608.057c-16.891 0-30.632 13.739-30.632 30.63 0 16.893 13.741 30.632 30.632 30.632h59.62l-76.481 50.411c-11.382 7.503-16.395 21.32-12.479 34.37zM738.675 336.271c3.134 10.427 12.55 17.432 23.437 17.438h99.261c8.714 0 16.834-4.689 21.189-12.237 4.359-7.544 4.359-16.919 0-24.47-4.355-7.546-12.476-12.232-21.189-12.232h-17.678l31.145-20.529c9.094-5.994 13.099-17.031 9.97-27.457-3.076-10.265-12.713-17.436-23.437-17.441h-99.261c-13.493 0-24.467 10.977-24.467 24.47 0 13.491 10.973 24.468 24.467 24.468h17.678l-31.149 20.531c-9.084 5.994-13.089 17.027-9.966 27.459zM797.023 144.991c2.534 8.457 10.168 14.141 19.006 14.15h83.87a19.915 19.915 0 0 0 17.192-9.926 19.91 19.91 0 0 0-0.004-19.851 19.912 19.912 0 0 0-17.188-9.917h-17.696l28.627-18.868c7.363-4.863 10.607-13.812 8.076-22.267-2.536-8.457-10.17-14.141-19.007-14.15h-83.87c-7.071 0-13.661 3.803-17.188 9.919a19.895 19.895 0 0 0-0.004 19.851c3.53 6.123 10.12 9.924 17.192 9.924h17.696l-28.627 18.868c-7.364 4.863-10.608 13.814-8.075 22.267z" p-id="11074"></path></svg>