<?xml version="1.0" standalone="no"?><!DOCTYPE svg PUBLIC "-//W3C//DTD SVG 1.1//EN" "http://www.w3.org/Graphics/SVG/1.1/DTD/svg11.dtd"><svg t="1639980928541" class="icon" viewBox="0 0 1479 1024" version="1.1" xmlns="http://www.w3.org/2000/svg" p-id="22158" data-spm-anchor-id="a313x.7781069.0.i22" xmlns:xlink="http://www.w3.org/1999/xlink" width="288.8671875" height="200"><defs><style type="text/css"></style></defs><path d="M1085.551631 1010.99146H343.913171c-189.628857 0-343.910895-154.244112-343.910895-343.910895a341.862904 341.862904 0 0 1 303.292394-340.687204A452.719933 452.719933 0 0 1 739.934076 0.004172c165.65977 0 315.694121 88.367047 396.51394 231.991944 192.549141 25.220638 340.383798 191.449294 340.383798 387.677235 0.037926 215.797639-175.482544 391.318109-391.280183 391.318109zM739.934076 78.245038a375.085879 375.085879 0 0 0-367.690354 293.7351 39.139396 39.139396 0 0 1-36.86385 30.454394c-144.269634 4.626944-257.212582 120.869433-257.212582 264.646033a265.935509 265.935509 0 0 0 265.707955 265.707955h741.676386c172.676037 0 313.115169-140.439132 313.115169-313.115169 0-162.853262-127.240963-299.841149-289.79082-311.825693a39.139396 39.139396 0 0 1-32.009351-21.42806c-64.625514-128.416662-193.72484-208.212485-336.932553-208.212486z m205.02672 536.384185c-10.012404 0-20.024807-3.792577-27.609961-11.491508l-178.93379-178.895864-178.857938 178.895864a39.139396 39.139396 0 1 1-55.371626-55.333701l206.543751-206.543751c14.639348-14.639348 40.618501-14.639348 55.3337 0l206.543751 206.543751a39.139396 39.139396 0 0 1-27.647887 66.825209z m-206.543751 191.638923c-21.61769 0-39.10147-17.521706-39.10147-39.10147V368.90815a39.139396 39.139396 0 0 1 78.20294 0v398.2206c0 21.61769-17.521706 39.139396-39.10147 39.139396z" p-id="22159" fill="#f43319"></path></svg>