<?xml version="1.0" standalone="no"?><!DOCTYPE svg PUBLIC "-//W3C//DTD SVG 1.1//EN" "http://www.w3.org/Graphics/SVG/1.1/DTD/svg11.dtd"><svg t="1639981197269" class="icon" viewBox="0 0 1024 1024" version="1.1" xmlns="http://www.w3.org/2000/svg" p-id="29745" data-spm-anchor-id="a313x.7781069.0.i70" xmlns:xlink="http://www.w3.org/1999/xlink" width="200" height="200"><defs><style type="text/css"></style></defs><path d="M747.351 285.09H639.019v-53.018h32.033c32.763 0 59.323-26.56 59.323-59.323s-26.56-59.323-59.323-59.323H353.688c-32.763 0-59.323 26.56-59.323 59.323s26.56 59.323 59.323 59.323h32.034v53.018H277.389c-38.262 0-69.391 31.129-69.391 69.391v467.362c0 38.263 31.129 69.392 69.391 69.392H747.35c38.263 0 69.392-31.129 69.392-69.392V354.481c0-38.262-31.129-69.391-69.391-69.391zM310.365 172.749c0-23.889 19.435-43.323 43.323-43.323h317.364c23.888 0 43.323 19.435 43.323 43.323s-19.435 43.323-43.323 43.323H353.688c-23.888 0-43.323-19.435-43.323-43.323z m91.357 59.323h221.296v53.018H401.722v-53.018zM277.389 301.09H747.35c29.44 0 53.392 23.951 53.392 53.391v252.56c-9.707 6.641-41.104 26.567-84.899 38.917-70.391 19.849-137.774 11.75-200.276-24.07-81.699-46.824-159.375-63-210.15-68.324-38.085-3.995-66.788-2.721-81.418-1.472v-197.61c-0.001-29.441 23.95-53.392 53.39-53.392z m469.962 574.144H277.389c-29.44 0-53.391-23.951-53.391-53.392V568.177c13.424-1.194 42.204-2.683 80.344 1.362 49.101 5.209 124.224 20.927 203.269 66.229 36.591 20.972 75.474 33.068 115.569 35.955 6.326 0.456 12.684 0.684 19.065 0.684 25.938 0 52.275-3.757 78.538-11.219 36.706-10.43 64.718-25.6 79.959-35.038v195.692c0 29.441-23.951 53.392-53.391 53.392z" p-id="29746" data-spm-anchor-id="a313x.7781069.0.i71" class="selected" fill="#f43319"></path></svg>