<?xml version="1.0" standalone="no"?><!DOCTYPE svg PUBLIC "-//W3C//DTD SVG 1.1//EN" "http://www.w3.org/Graphics/SVG/1.1/DTD/svg11.dtd"><svg t="1639980812516" class="icon" viewBox="0 0 1024 1024" version="1.1" xmlns="http://www.w3.org/2000/svg" p-id="13146" xmlns:xlink="http://www.w3.org/1999/xlink" width="200" height="200"><defs><style type="text/css"></style></defs><path d="M 512.518 98.228 C 283.962 98.228 98 284.178 98 512.745 s 185.962 414.518 414.518 414.518 c 12.729 0 23.029 -10.311 23.029 -23.029 s -10.3 -23.029 -23.029 -23.029 c -203.166 0 -368.46 -165.294 -368.46 -368.46 s 165.294 -368.46 368.46 -368.46 s 368.46 165.294 368.46 368.46 c 0 12.718 10.3 23.029 23.029 23.029 s 23.029 -10.311 23.029 -23.029 c 0 -228.567 -185.962 -414.517 -414.518 -414.517 Z" fill="#f43319" p-id="13147"></path><path d="M 650.69 696.976 c -12.729 0 -23.029 10.311 -23.029 23.029 v 184.23 c 0 12.718 10.3 23.029 23.029 23.029 s 23.029 -10.311 23.029 -23.029 v -184.23 c 0 -12.718 -10.3 -23.029 -23.029 -23.029 Z M 765.834 558.803 c -12.729 0 -23.029 10.311 -23.029 23.029 v 322.403 c 0 12.718 10.3 23.029 23.029 23.029 s 23.029 -10.311 23.029 -23.029 V 581.832 c 0 -12.718 -10.3 -23.029 -23.029 -23.029 Z M 880.978 696.976 c -12.729 0 -23.029 10.311 -23.029 23.029 v 184.23 c 0 12.718 10.3 23.029 23.029 23.029 s 23.029 -10.311 23.029 -23.029 v -184.23 c 0 -12.718 -10.3 -23.029 -23.029 -23.029 Z M 654.584 466.98 l -212.51 -113.32 a 46.024 46.024 0 0 0 -21.67 -5.417 a 46.057 46.057 0 0 0 -46.053 46.817 l 3.854 233.589 a 46.061 46.061 0 0 0 46.052 45.298 a 46.034 46.034 0 0 0 23.001 -6.154 l 208.656 -120.269 a 46.06 46.06 0 0 0 -1.33 -80.544 Z M 424.257 627.889 L 420.403 394.3 l 212.51 113.319 l -208.656 120.27 Z" fill="#f43319" p-id="13148"></path></svg>